<svg xmlns="http://www.w3.org/2000/svg" xmlns:xlink="http://www.w3.org/1999/xlink" xmlns:serif="http://www.serif.com/" width="123" height="109" version="1.1" xml:space="preserve" style="fill-rule: evenodd; clip-rule: evenodd; stroke-linejoin: round; stroke-miterlimit: 2;"><rect id="backgroundrect" width="100%" height="100%" x="0" y="0" fill="none" stroke="none"/><g class="currentLayer" style=""><title>Layer 1</title><g id="svg_1" class="selected"><g id="svg_2"><path d="M101.131,35.285c-1.309,-0.447 -2.629,-0.86 -3.96,-1.241c0.221,-0.892 0.425,-1.788 0.612,-2.687c2.998,-14.473 1.038,-26.133 -5.654,-29.972c-6.417,-3.681 -16.911,0.158 -27.509,9.332c-1.045,0.906 -2.066,1.839 -3.063,2.796c-0.668,-0.636 -1.347,-1.261 -2.038,-1.872c-11.107,-9.811 -22.241,-13.945 -28.926,-10.096c-6.411,3.692 -8.309,14.654 -5.611,28.37c0.268,1.359 0.572,2.71 0.909,4.053c-1.575,0.445 -3.097,0.92 -4.552,1.424c-13.022,4.517 -21.339,11.595 -21.339,18.937c0,7.584 8.927,15.19 22.492,19.801c1.099,0.372 2.209,0.717 3.326,1.035c-0.363,1.447 -0.686,2.903 -0.967,4.368c-2.572,13.479 -0.563,24.181 5.83,27.849c6.604,3.788 17.687,-0.105 28.479,-9.49c0.853,-0.742 1.71,-1.528 2.567,-2.353c1.08,1.036 2.189,2.042 3.325,3.018c10.454,8.948 20.778,12.562 27.166,8.883c6.597,-3.799 8.741,-15.296 5.957,-29.284c-0.212,-1.068 -0.46,-2.16 -0.737,-3.271c0.778,-0.228 1.542,-0.464 2.287,-0.71c14.101,-4.648 23.275,-12.161 23.275,-19.846c0,-7.368 -8.585,-14.495 -21.869,-19.044Zm-8.776,40.926c-5.095,1.172 -10.712,2.03 -16.659,2.555c-3.38,4.868 -6.844,9.252 -10.31,13.023c1.035,0.991 2.068,1.928 3.093,2.805c6.984,5.979 13.572,9.058 17.968,9.054l0.066,0c1.202,-0.009 2.239,-0.252 3.072,-0.732c1.821,-1.048 3.294,-3.667 4.027,-7.595c0.815,-4.372 0.64,-9.964 -0.591,-16.15c-0.18,-0.905 -0.388,-1.829 -0.619,-2.771l-0.047,-0.189Zm-61.443,0.234c-0.039,0.155 -0.077,0.31 -0.115,0.466c-0.013,0.055 -0.027,0.11 -0.04,0.166l-0.03,0.126c-0.013,0.052 -0.025,0.103 -0.037,0.154c-0.052,0.22 -0.103,0.44 -0.153,0.661l-0.017,0.072l-0.027,0.118c-0.057,0.255 -0.113,0.51 -0.167,0.765c-0.021,0.096 -0.041,0.193 -0.062,0.289c-0.019,0.091 -0.038,0.182 -0.056,0.273l-0.015,0.07c-0.029,0.144 -0.058,0.288 -0.087,0.432c-0.019,0.094 -0.037,0.188 -0.056,0.283c-0.012,0.062 -0.024,0.125 -0.036,0.188l-0.024,0.124c-0.08,0.424 -0.154,0.843 -0.224,1.258c-0.019,0.111 -0.037,0.223 -0.055,0.334c-0.016,0.101 -0.033,0.202 -0.048,0.302c-0.076,0.485 -0.146,0.964 -0.208,1.437c-0.146,1.113 -0.255,2.192 -0.326,3.233l-0.005,0.063l-0.004,0.057c-0.052,0.786 -0.083,1.55 -0.094,2.29c-0.003,0.205 -0.005,0.408 -0.005,0.609c0,0.288 0.003,0.573 0.01,0.853l0.001,0.04l0.001,0.057c0.005,0.2 0.011,0.398 0.02,0.594l0.003,0.09l0.002,0.036c0.01,0.215 0.021,0.427 0.035,0.637c0.006,0.103 0.013,0.206 0.021,0.308l0.003,0.043l0.008,0.101l0.008,0.099l0.007,0.091c0.066,0.777 0.158,1.518 0.275,2.218l0.011,0.065c0.015,0.086 0.03,0.172 0.046,0.258l0.016,0.087c0.077,0.418 0.164,0.82 0.261,1.207c0.03,0.123 0.061,0.243 0.093,0.362c0.013,0.047 0.026,0.094 0.039,0.141c0.018,0.067 0.037,0.133 0.056,0.199c0.047,0.159 0.095,0.315 0.144,0.468c0.015,0.045 0.03,0.091 0.045,0.136l0.021,0.063l0.004,0.01c0.025,0.076 0.051,0.15 0.078,0.224c0.031,0.087 0.063,0.174 0.096,0.26c0.027,0.071 0.055,0.142 0.083,0.213l0.027,0.068c0.024,0.058 0.048,0.116 0.073,0.174c0.027,0.064 0.055,0.128 0.083,0.192c0.032,0.072 0.065,0.143 0.097,0.213c0.039,0.083 0.079,0.164 0.119,0.245c0.035,0.069 0.07,0.137 0.105,0.205c0.104,0.196 0.211,0.384 0.322,0.563c0.018,0.028 0.035,0.056 0.053,0.084l0.017,0.027l0.035,0.054l0.004,0.005c0.151,0.233 0.31,0.451 0.475,0.653l0.028,0.034l0.038,0.046c0.017,0.019 0.033,0.038 0.049,0.057l0.019,0.022c0.033,0.037 0.065,0.074 0.098,0.11l0.023,0.025c0.171,0.186 0.349,0.356 0.532,0.51c0.087,0.072 0.175,0.141 0.265,0.207c0.012,0.009 0.024,0.018 0.036,0.026l0.022,0.016c0.062,0.044 0.124,0.086 0.188,0.127c0.033,0.021 0.066,0.042 0.1,0.062c0.03,0.018 0.06,0.036 0.091,0.054c0.035,0.02 0.071,0.04 0.107,0.059c0.108,0.058 0.219,0.112 0.335,0.163l0.026,0.011c0.098,0.042 0.198,0.081 0.3,0.118l0.014,0.005l0.019,0.007c0.049,0.017 0.097,0.033 0.146,0.049l0.036,0.011l0.038,0.012c0.199,0.06 0.406,0.111 0.623,0.153l0.039,0.008l0.032,0.006c0.065,0.012 0.131,0.023 0.198,0.033l0.058,0.009c0.064,0.01 0.13,0.018 0.196,0.026c0.11,0.014 0.223,0.025 0.337,0.034c0.309,0.024 0.631,0.032 0.968,0.025l0.013,-0.001l0.068,-0.002c0.034,-0.001 0.068,-0.002 0.103,-0.003c0.058,-0.003 0.116,-0.005 0.174,-0.008c0.451,-0.025 0.924,-0.077 1.419,-0.158c0.079,-0.013 0.159,-0.026 0.239,-0.041c0.06,-0.01 0.12,-0.021 0.18,-0.033l0.01,-0.001l0.003,-0.001c0.246,-0.047 0.497,-0.101 0.754,-0.161l0.044,-0.01l0.073,-0.018c0.052,-0.013 0.104,-0.026 0.157,-0.039c0.085,-0.021 0.17,-0.043 0.255,-0.066c0.047,-0.012 0.094,-0.025 0.141,-0.038l0.039,-0.01l0.058,-0.016c0.084,-0.024 0.169,-0.048 0.254,-0.073l0.028,-0.008l0.023,-0.006c0.186,-0.055 0.375,-0.113 0.565,-0.174c0.036,-0.012 0.072,-0.023 0.109,-0.035l0.088,-0.029c0.118,-0.039 0.237,-0.08 0.357,-0.121l0.001,0l0.1,-0.036c0.138,-0.05 0.276,-0.101 0.416,-0.153c0.093,-0.036 0.187,-0.072 0.282,-0.109c0.102,-0.04 0.205,-0.08 0.308,-0.122c0.053,-0.022 0.107,-0.043 0.16,-0.065c0.065,-0.027 0.13,-0.054 0.195,-0.081l0.06,-0.025l0.095,-0.041c0.09,-0.038 0.181,-0.077 0.272,-0.117c0.114,-0.05 0.228,-0.101 0.343,-0.152c0.045,-0.02 0.089,-0.04 0.133,-0.061c0.165,-0.075 0.331,-0.152 0.497,-0.231c0.059,-0.029 0.119,-0.057 0.179,-0.086l0.036,-0.018l0.102,-0.049c0.071,-0.035 0.142,-0.07 0.213,-0.106l0.106,-0.052c0.097,-0.049 0.195,-0.099 0.292,-0.149l0.024,-0.012l0.056,-0.029c0.053,-0.027 0.106,-0.054 0.159,-0.082c0.325,-0.17 0.652,-0.347 0.981,-0.531c0.497,-0.277 0.997,-0.571 1.5,-0.88c0.085,-0.052 0.171,-0.105 0.256,-0.158c0.152,-0.095 0.305,-0.191 0.457,-0.289l0.029,-0.018l0.074,-0.048c0.383,-0.247 0.768,-0.502 1.153,-0.766c0.078,-0.053 0.156,-0.107 0.234,-0.16c0.097,-0.068 0.194,-0.135 0.291,-0.204l0.11,-0.077c0.237,-0.168 0.475,-0.338 0.713,-0.512c0.452,-0.331 0.906,-0.674 1.36,-1.028c0.067,-0.052 0.135,-0.105 0.202,-0.158c0.297,-0.233 0.594,-0.472 0.892,-0.715l0.043,-0.035l0.029,-0.024c0.266,-0.218 0.532,-0.44 0.798,-0.665c0.096,-0.082 0.193,-0.164 0.289,-0.246c0.11,-0.094 0.22,-0.189 0.33,-0.285c0.028,-0.025 0.057,-0.05 0.086,-0.075c0.125,-0.11 0.249,-0.22 0.374,-0.33c0.406,-0.361 0.808,-0.728 1.206,-1.099c0.149,-0.14 0.297,-0.28 0.445,-0.421c0.078,-0.073 0.155,-0.147 0.232,-0.222c-0.068,-0.072 -0.136,-0.145 -0.205,-0.219c-0.38,-0.408 -0.76,-0.823 -1.14,-1.244l-0.084,-0.093c-0.046,-0.051 -0.091,-0.101 -0.137,-0.152c-0.732,-0.816 -1.462,-1.653 -2.189,-2.511l-0.017,-0.02l-0.066,-0.078c-0.228,-0.269 -0.456,-0.541 -0.683,-0.814l-0.042,-0.052c-0.269,-0.324 -0.538,-0.651 -0.806,-0.98c-0.06,-0.074 -0.12,-0.147 -0.179,-0.221c-0.057,-0.07 -0.113,-0.139 -0.169,-0.209l-0.046,-0.057l-0.062,-0.077l-0.021,-0.026l-0.021,-0.026c-0.127,-0.158 -0.253,-0.316 -0.38,-0.475c-0.659,-0.829 -1.315,-1.675 -1.967,-2.535l-0.008,-0.011l-0.027,-0.036c-0.219,-0.289 -0.438,-0.581 -0.656,-0.873c-0.113,-0.152 -0.226,-0.304 -0.339,-0.457c-0.064,-0.088 -0.129,-0.175 -0.193,-0.263l-0.16,-0.218l-0.029,-0.04c-0.312,-0.427 -0.623,-0.856 -0.932,-1.29c-1.274,-0.102 -2.531,-0.22 -3.768,-0.351l-0.087,-0.01l-0.02,-0.002c-0.123,-0.013 -0.246,-0.026 -0.369,-0.04c-0.141,-0.015 -0.282,-0.031 -0.422,-0.047l-0.135,-0.015l-0.134,-0.015l0,0c-0.534,-0.062 -1.063,-0.126 -1.589,-0.192c-0.589,-0.075 -1.173,-0.153 -1.752,-0.235c-0.178,-0.025 -0.356,-0.05 -0.533,-0.076c-0.084,-0.012 -0.169,-0.025 -0.253,-0.037l-0.09,-0.013l-0.086,-0.013l-0.043,-0.006l-0.058,-0.009l-0.071,-0.011l-0.128,-0.019c-0.086,-0.013 -0.172,-0.026 -0.257,-0.039l-0.128,-0.02l-0.074,-0.011c-0.065,-0.011 -0.129,-0.021 -0.194,-0.031l-0.116,-0.018l-0.053,-0.008c-0.152,-0.025 -0.304,-0.049 -0.456,-0.074l-0.127,-0.02c-0.251,-0.041 -0.501,-0.083 -0.751,-0.126c-0.498,-0.085 -0.993,-0.172 -1.483,-0.263c-0.179,-0.033 -0.358,-0.066 -0.536,-0.1c-0.196,-0.037 -0.39,-0.075 -0.584,-0.113l-0.122,-0.023c-0.446,-0.088 -0.887,-0.178 -1.325,-0.271c-0.08,-0.016 -0.16,-0.033 -0.239,-0.05l-0.119,-0.026c-0.119,-0.025 -0.237,-0.051 -0.356,-0.077l-0.118,-0.026Zm38.013,2.767c-2.363,0.105 -4.763,0.161 -7.19,0.164l-0.235,0c-2.364,0 -4.691,-0.044 -6.975,-0.13l-0.221,-0.009c2.426,3.181 4.91,6.137 7.4,8.811l0.113,-0.124c2.332,-2.564 4.675,-5.432 6.996,-8.56l0.112,-0.152Zm-24.676,-34.47c-0.13,0.224 -0.258,0.448 -0.387,0.673l-0.048,0.083l-0.005,0.011c-0.247,0.433 -0.492,0.867 -0.735,1.303l-0.03,0.055l-0.036,0.065l-0.049,0.088l-0.031,0.055c-0.081,0.146 -0.161,0.291 -0.241,0.437c-0.062,0.113 -0.124,0.226 -0.186,0.339l-0.047,0.086l-0.058,0.106c-0.122,0.225 -0.244,0.45 -0.365,0.675c-0.153,0.285 -0.305,0.57 -0.456,0.855c-0.096,0.181 -0.191,0.362 -0.287,0.543c-0.477,0.912 -0.945,1.828 -1.404,2.749c-0.263,0.528 -0.523,1.058 -0.779,1.59c0.204,0.422 0.411,0.844 0.62,1.264c0.159,0.322 0.32,0.642 0.482,0.963c0.112,0.222 0.225,0.445 0.339,0.667c0.156,0.304 0.312,0.608 0.47,0.911c0.386,0.741 0.779,1.479 1.177,2.214c0.075,0.137 0.149,0.274 0.224,0.411c0.079,0.144 0.158,0.287 0.237,0.43c0.485,0.882 0.98,1.758 1.484,2.629l0.039,0.068l0.066,0.113c0.036,0.063 0.073,0.126 0.109,0.189c0.171,0.292 0.342,0.585 0.514,0.876c0.163,0.276 0.327,0.551 0.492,0.826l0.066,0.11l0.082,0.136c0.107,0.178 0.215,0.357 0.324,0.535l0.05,0.083l0.09,0.147l0.032,0.053c0.053,0.087 0.107,0.174 0.16,0.26c0.625,1.018 1.262,2.028 1.911,3.03c0.376,0.58 0.755,1.157 1.139,1.731l0.067,0.101l0.034,0.051c0.347,0.518 0.697,1.033 1.051,1.547c0.056,0.003 0.112,0.007 0.168,0.01l0.168,0.011c0.205,0.013 0.411,0.025 0.617,0.037c0.133,0.008 0.265,0.015 0.398,0.023l0.169,0.009c0.135,0.008 0.269,0.015 0.403,0.022c0.093,0.005 0.186,0.01 0.278,0.014l0.171,0.009c0.074,0.004 0.148,0.007 0.222,0.011c0.268,0.013 0.537,0.025 0.806,0.037l0.173,0.008l0.043,0.001c0.158,0.007 0.316,0.014 0.474,0.02l0.173,0.007c0.412,0.016 0.826,0.03 1.242,0.043l0.146,0.005l0.175,0.005c0.975,0.029 1.958,0.049 2.949,0.062c0.281,0.004 0.563,0.007 0.845,0.009c0.144,0.001 0.287,0.002 0.431,0.003c0.109,0.001 0.219,0.001 0.328,0.002c0.133,0 0.266,0.001 0.398,0.001c0.12,0 0.239,0 0.359,0c0.24,0 0.48,0 0.72,-0.001l0.179,-0.001c0.3,-0.002 0.599,-0.004 0.897,-0.007l0.179,-0.002c0.299,-0.004 0.597,-0.008 0.895,-0.014c0.87,-0.015 1.736,-0.037 2.596,-0.066c0.183,-0.006 0.365,-0.012 0.547,-0.019c0.12,-0.005 0.241,-0.009 0.361,-0.014c0.717,-0.028 1.43,-0.061 2.14,-0.098c0.134,-0.008 0.269,-0.015 0.403,-0.022c0.556,-0.031 1.11,-0.065 1.661,-0.102l0.172,-0.011c0.057,-0.004 0.114,-0.008 0.171,-0.012l0.172,-0.012c0.057,-0.004 0.114,-0.008 0.171,-0.012c0.04,-0.06 0.08,-0.12 0.12,-0.18c0.137,-0.205 0.274,-0.412 0.411,-0.618c0.089,-0.136 0.179,-0.272 0.268,-0.407c0.151,-0.23 0.301,-0.46 0.451,-0.69c0.103,-0.158 0.205,-0.316 0.307,-0.474c0.398,-0.617 0.793,-1.237 1.184,-1.861l0.084,-0.134l0.071,-0.113c0.181,-0.289 0.361,-0.58 0.54,-0.871c0.08,-0.13 0.16,-0.26 0.24,-0.389c0.14,-0.229 0.28,-0.459 0.419,-0.688c0.385,-0.635 0.768,-1.275 1.147,-1.92c0.067,-0.113 0.134,-0.226 0.201,-0.34c0.153,-0.261 0.305,-0.523 0.458,-0.786l0,0c0.197,-0.34 0.392,-0.679 0.586,-1.019l0.034,-0.06l0.08,-0.141c0.034,-0.06 0.068,-0.119 0.102,-0.179c0.166,-0.293 0.33,-0.585 0.494,-0.878c0.256,-0.459 0.509,-0.919 0.76,-1.378c0.084,-0.153 0.167,-0.307 0.25,-0.46c0.048,-0.089 0.096,-0.177 0.143,-0.265c0.061,-0.112 0.121,-0.224 0.181,-0.336l0.034,-0.065l0.058,-0.107c0.13,-0.244 0.259,-0.488 0.388,-0.732c0.516,-0.979 1.02,-1.96 1.513,-2.946c0.077,-0.153 0.154,-0.307 0.23,-0.461l0.048,-0.097l0.056,-0.112c0.11,-0.222 0.219,-0.445 0.328,-0.668l-0.038,-0.078c-0.088,-0.176 -0.176,-0.351 -0.265,-0.527c-0.136,-0.27 -0.273,-0.54 -0.411,-0.81c-0.262,-0.513 -0.526,-1.026 -0.793,-1.537c-0.095,-0.18 -0.19,-0.36 -0.285,-0.541c-0.042,-0.08 -0.085,-0.16 -0.127,-0.24c-0.228,-0.43 -0.457,-0.859 -0.689,-1.288c-0.063,-0.117 -0.127,-0.233 -0.19,-0.35c-0.128,-0.236 -0.257,-0.471 -0.386,-0.706c-0.139,-0.253 -0.278,-0.505 -0.419,-0.757c-0.066,-0.12 -0.133,-0.24 -0.2,-0.36c-0.086,-0.154 -0.173,-0.307 -0.259,-0.461c-0.12,-0.212 -0.24,-0.424 -0.36,-0.636c-0.119,-0.207 -0.237,-0.415 -0.356,-0.622l-0.043,-0.074c-0.048,-0.084 -0.097,-0.168 -0.145,-0.252c-0.112,-0.193 -0.224,-0.386 -0.336,-0.579l-0.009,-0.014l-0.079,-0.136l-0.08,-0.137l-0.007,-0.013l-0.03,-0.051c-0.206,-0.353 -0.415,-0.706 -0.624,-1.058l-0.053,-0.089l-0.059,-0.098c-0.202,-0.339 -0.405,-0.676 -0.61,-1.013c-0.12,-0.198 -0.24,-0.395 -0.361,-0.591c-0.08,-0.132 -0.162,-0.264 -0.243,-0.396c-0.129,-0.209 -0.258,-0.417 -0.388,-0.625c-0.288,-0.462 -0.579,-0.923 -0.872,-1.382l-0.024,-0.037l-0.09,-0.141c-0.064,-0.099 -0.127,-0.198 -0.191,-0.298c-0.145,-0.224 -0.29,-0.448 -0.435,-0.672l-0.038,-0.057l-0.07,-0.108c-0.074,-0.114 -0.149,-0.228 -0.224,-0.342c-0.249,-0.379 -0.499,-0.757 -0.751,-1.133c-0.061,-0.093 -0.123,-0.185 -0.185,-0.277c-0.039,-0.058 -0.079,-0.117 -0.118,-0.176c-0.128,-0.19 -0.257,-0.38 -0.386,-0.569c-0.071,-0.006 -0.142,-0.011 -0.214,-0.016c-0.211,-0.016 -0.422,-0.031 -0.633,-0.046c-0.189,-0.013 -0.377,-0.026 -0.566,-0.039l-0.135,-0.008l-0.149,-0.01c-0.536,-0.034 -1.075,-0.066 -1.615,-0.095l-0.144,-0.007l-0.031,-0.002c-0.539,-0.028 -1.079,-0.053 -1.621,-0.075c-0.272,-0.011 -0.544,-0.021 -0.817,-0.031c-0.467,-0.017 -0.935,-0.031 -1.404,-0.043c-0.113,-0.003 -0.225,-0.006 -0.338,-0.009l-0.177,-0.004c-0.413,-0.009 -0.826,-0.017 -1.24,-0.022c-0.239,-0.004 -0.478,-0.007 -0.717,-0.009c-0.116,-0.001 -0.233,-0.002 -0.35,-0.003l-0.178,-0.001l-0.178,-0.001l-0.003,0c-0.177,-0.001 -0.355,-0.001 -0.532,-0.002l-0.178,0l-0.178,0c-0.171,0.001 -0.341,0.001 -0.512,0.002l-0.021,0l-0.177,0.001l-0.178,0.001l-0.042,0c-0.191,0.002 -0.381,0.004 -0.572,0.006l-0.095,0.001l-0.164,0.002c-0.361,0.005 -0.722,0.011 -1.082,0.018c-0.364,0.007 -0.727,0.016 -1.089,0.026c-0.698,0.019 -1.395,0.043 -2.089,0.071c-0.342,0.015 -0.683,0.03 -1.024,0.046l-0.174,0.009c-0.068,0.003 -0.136,0.006 -0.203,0.01c-0.571,0.029 -1.14,0.061 -1.706,0.096l-0.173,0.011c-0.576,0.037 -1.15,0.076 -1.722,0.119c-0.034,0.051 -0.069,0.101 -0.103,0.152c-0.083,0.121 -0.165,0.241 -0.247,0.362c-0.134,0.197 -0.268,0.394 -0.4,0.592c-0.105,0.154 -0.208,0.309 -0.312,0.464c-0.195,0.293 -0.39,0.587 -0.583,0.881c-0.143,0.218 -0.285,0.436 -0.427,0.654l-0.059,0.091l-0.065,0.1c-0.05,0.077 -0.099,0.154 -0.149,0.231l-0.07,0.109l-0.069,0.107c-0.115,0.179 -0.229,0.358 -0.343,0.537c-0.071,0.111 -0.141,0.223 -0.212,0.334c-0.134,0.213 -0.268,0.426 -0.401,0.639c-0.05,0.08 -0.1,0.16 -0.15,0.241c-0.068,0.109 -0.136,0.218 -0.203,0.327c-0.187,0.302 -0.372,0.604 -0.556,0.907c-0.113,0.185 -0.226,0.371 -0.338,0.557c-0.078,0.13 -0.156,0.26 -0.234,0.391l-0.069,0.114l-0.03,0.051l-0.059,0.099l-0.025,0.041c-0.088,0.149 -0.176,0.297 -0.264,0.446c-0.2,0.339 -0.398,0.678 -0.595,1.019l0,-0.001l-0.088,0.151Zm-7.931,15.859c-1.563,3.688 -2.901,7.314 -3.987,10.802c3.508,0.76 7.307,1.366 11.335,1.813l-0.125,-0.193c-1.292,-2.001 -2.538,-4.032 -3.736,-6.09c-1.175,-2.019 -2.303,-4.063 -3.383,-6.132l-0.104,-0.2Zm50.466,-0.188c-1.141,2.187 -2.33,4.349 -3.568,6.483c-1.217,2.1 -2.476,4.176 -3.776,6.227l0.19,-0.023c3.988,-0.482 7.773,-1.126 11.284,-1.923c-1.083,-3.376 -2.443,-6.923 -4.054,-10.589l-0.076,-0.175Zm-59.482,-21.41c-1.424,0.401 -2.835,0.843 -4.233,1.325c-11.137,3.863 -17.815,9.546 -17.815,14.001c0,2.094 1.541,4.675 4.591,7.274c3.395,2.892 8.348,5.542 14.346,7.581c1.004,0.34 2.017,0.655 3.036,0.946l0.037,-0.118c1.549,-5.004 3.584,-10.253 6.033,-15.556c-2.417,-5.224 -4.424,-10.391 -5.959,-15.336l-0.036,-0.117Zm70.77,30.21l0.001,0c0.446,-0.147 0.885,-0.298 1.318,-0.451l0.091,-0.032l0.08,-0.028l0.059,-0.021l0.099,-0.036l0.039,-0.014l0.037,-0.013c0.125,-0.045 0.25,-0.091 0.374,-0.136c0.19,-0.07 0.379,-0.14 0.566,-0.211c0.082,-0.031 0.164,-0.062 0.245,-0.093l0.133,-0.051c0.172,-0.066 0.343,-0.133 0.512,-0.199l0.018,-0.007l0.026,-0.011c0.353,-0.14 0.702,-0.281 1.045,-0.424c0.194,-0.081 0.387,-0.162 0.578,-0.244c0.226,-0.097 0.449,-0.195 0.67,-0.293c0.155,-0.068 0.308,-0.137 0.46,-0.207l0.121,-0.055c0.067,-0.03 0.133,-0.061 0.199,-0.091c0.167,-0.077 0.332,-0.155 0.497,-0.233l0.019,-0.009l0.099,-0.048c0.127,-0.06 0.254,-0.121 0.379,-0.183c0.311,-0.151 0.617,-0.304 0.917,-0.458c0.28,-0.144 0.556,-0.289 0.827,-0.435l0.034,-0.019l0.052,-0.028c0.161,-0.087 0.322,-0.175 0.48,-0.263c0.103,-0.058 0.205,-0.115 0.306,-0.173l0.008,-0.004l0.035,-0.02c0.234,-0.133 0.464,-0.267 0.691,-0.402c0.224,-0.133 0.444,-0.267 0.66,-0.402l0.014,-0.008l0.054,-0.034c0.356,-0.222 0.701,-0.446 1.035,-0.671c0.058,-0.039 0.116,-0.078 0.173,-0.118c0.576,-0.393 1.117,-0.789 1.624,-1.187l0.078,-0.062c0.1,-0.079 0.199,-0.158 0.296,-0.238c0.1,-0.082 0.199,-0.163 0.296,-0.245c0.036,-0.03 0.072,-0.061 0.107,-0.091c0.041,-0.035 0.082,-0.07 0.123,-0.105c0.181,-0.156 0.356,-0.313 0.526,-0.469c0.07,-0.065 0.14,-0.13 0.208,-0.195l0.018,-0.017l0.046,-0.043c0.093,-0.089 0.184,-0.178 0.273,-0.266c0.138,-0.138 0.272,-0.276 0.402,-0.413c0.051,-0.054 0.101,-0.107 0.15,-0.161c0.113,-0.124 0.223,-0.247 0.33,-0.37c0.035,-0.041 0.07,-0.082 0.105,-0.124c0.162,-0.192 0.315,-0.383 0.459,-0.574l0.018,-0.023l0.04,-0.054c0.017,-0.023 0.034,-0.046 0.051,-0.069l0.044,-0.061c0.036,-0.049 0.071,-0.098 0.105,-0.147l0.025,-0.036l0.036,-0.052c0.08,-0.116 0.156,-0.232 0.228,-0.347c0.083,-0.132 0.162,-0.263 0.236,-0.394l0.032,-0.056l0.001,-0.002c0.091,-0.163 0.174,-0.325 0.251,-0.486c0.019,-0.04 0.038,-0.08 0.056,-0.119c0.009,-0.022 0.019,-0.043 0.028,-0.064c0.009,-0.019 0.017,-0.037 0.025,-0.056c0.06,-0.139 0.116,-0.278 0.165,-0.415c0.011,-0.029 0.021,-0.057 0.031,-0.086c0.016,-0.046 0.031,-0.092 0.046,-0.139c0.009,-0.027 0.017,-0.055 0.026,-0.083l0.001,-0.003l0.004,-0.015c0.015,-0.048 0.029,-0.096 0.042,-0.143c0.007,-0.025 0.013,-0.05 0.02,-0.075c0.018,-0.069 0.035,-0.138 0.05,-0.208c0.005,-0.02 0.009,-0.041 0.013,-0.062c0.009,-0.042 0.017,-0.084 0.025,-0.125c0.008,-0.041 0.015,-0.083 0.021,-0.123c0.005,-0.03 0.01,-0.06 0.014,-0.089c0.003,-0.024 0.006,-0.047 0.009,-0.07c0.003,-0.026 0.007,-0.051 0.009,-0.077c0.007,-0.057 0.012,-0.115 0.017,-0.172c0.001,-0.017 0.002,-0.033 0.003,-0.05c0.007,-0.1 0.01,-0.199 0.01,-0.298c0,-0.045 -0.001,-0.09 -0.002,-0.135c-0.002,-0.043 -0.004,-0.086 -0.006,-0.129c-0.004,-0.063 -0.009,-0.126 -0.016,-0.19c-0.004,-0.039 -0.008,-0.078 -0.013,-0.118c-0.013,-0.095 -0.028,-0.191 -0.046,-0.287c-0.004,-0.019 -0.007,-0.038 -0.011,-0.057c-0.011,-0.054 -0.023,-0.108 -0.036,-0.162c-0.008,-0.036 -0.017,-0.072 -0.026,-0.108c-0.008,-0.032 -0.016,-0.063 -0.025,-0.095c-0.04,-0.146 -0.087,-0.292 -0.14,-0.44l-0.01,-0.027c-0.036,-0.1 -0.075,-0.2 -0.118,-0.301c-0.019,-0.045 -0.038,-0.09 -0.059,-0.136c-0.082,-0.185 -0.174,-0.372 -0.276,-0.559c-0.022,-0.04 -0.044,-0.08 -0.066,-0.119c-0.055,-0.097 -0.112,-0.194 -0.171,-0.291c-0.056,-0.091 -0.114,-0.182 -0.174,-0.273c-0.066,-0.1 -0.135,-0.201 -0.206,-0.301c-0.04,-0.056 -0.079,-0.111 -0.12,-0.166c-0.05,-0.068 -0.101,-0.135 -0.153,-0.203l-0.006,-0.008l-0.018,-0.024c-0.026,-0.033 -0.053,-0.067 -0.08,-0.101c-0.028,-0.036 -0.057,-0.072 -0.086,-0.108c-0.222,-0.274 -0.462,-0.55 -0.721,-0.825c-0.035,-0.038 -0.07,-0.075 -0.106,-0.112l-0.049,-0.052l-0.041,-0.042c-0.07,-0.072 -0.141,-0.143 -0.213,-0.215c-0.093,-0.092 -0.188,-0.185 -0.285,-0.277c-0.055,-0.053 -0.11,-0.105 -0.166,-0.157l-0.011,-0.01l-0.05,-0.047l-0.013,-0.012l-0.042,-0.038c-0.055,-0.051 -0.111,-0.102 -0.168,-0.152c-0.728,-0.653 -1.555,-1.304 -2.478,-1.948c-0.211,-0.146 -0.426,-0.293 -0.647,-0.439c-0.222,-0.147 -0.45,-0.294 -0.682,-0.44l-0.08,-0.05l-0.082,-0.051c-0.13,-0.082 -0.263,-0.163 -0.396,-0.243c-0.097,-0.059 -0.195,-0.118 -0.293,-0.176c-0.103,-0.061 -0.206,-0.121 -0.31,-0.182c-0.07,-0.04 -0.14,-0.081 -0.211,-0.121c-0.419,-0.241 -0.853,-0.479 -1.299,-0.715c-0.141,-0.074 -0.282,-0.148 -0.425,-0.222c-0.45,-0.231 -0.912,-0.46 -1.386,-0.685l-0.053,-0.026l-0.076,-0.036c-0.108,-0.051 -0.216,-0.101 -0.325,-0.152c-0.178,-0.082 -0.358,-0.165 -0.539,-0.246c-0.309,-0.14 -0.622,-0.277 -0.94,-0.414c-0.601,-0.257 -1.219,-0.51 -1.853,-0.757c-0.142,-0.055 -0.285,-0.11 -0.428,-0.165c-0.046,-0.017 -0.093,-0.035 -0.139,-0.052l-0.127,-0.048c-0.08,-0.03 -0.159,-0.06 -0.239,-0.09l-0.017,-0.006l-0.075,-0.028c-0.473,-0.174 -0.955,-0.346 -1.444,-0.514l-0.052,-0.018l-0.004,-0.001l-0.107,-0.037l-0.086,-0.029c-0.062,-0.021 -0.123,-0.042 -0.185,-0.062c-0.989,-0.333 -2.009,-0.651 -3.055,-0.955l-0.102,-0.03l-0.118,-0.034l-0.035,0.114l-0.029,0.092c-0.056,0.178 -0.112,0.357 -0.17,0.536c-0.082,0.258 -0.166,0.517 -0.251,0.777c-0.057,0.174 -0.115,0.348 -0.173,0.523c-0.21,0.628 -0.428,1.259 -0.653,1.895c-0.04,0.111 -0.08,0.222 -0.119,0.333c-0.021,0.057 -0.041,0.114 -0.062,0.171l-0.03,0.083l-0.021,0.059c-0.074,0.205 -0.149,0.411 -0.225,0.617c-0.057,0.154 -0.114,0.307 -0.172,0.462c-0.108,0.289 -0.217,0.579 -0.328,0.87c-0.058,0.151 -0.116,0.301 -0.174,0.452c-0.065,0.166 -0.129,0.332 -0.194,0.498c-0.026,0.067 -0.053,0.133 -0.079,0.2c-0.054,0.137 -0.108,0.274 -0.163,0.412c-0.04,0.101 -0.081,0.202 -0.121,0.304c-0.196,0.489 -0.397,0.979 -0.601,1.471c-0.049,0.117 -0.097,0.233 -0.146,0.349c-0.553,1.321 -1.136,2.653 -1.748,3.992l-0.037,0.081l-0.113,0.245c-0.069,0.151 -0.139,0.303 -0.209,0.454c-0.044,0.095 -0.089,0.19 -0.133,0.285c0.269,0.564 0.533,1.126 0.791,1.685l0.036,0.076l0.086,0.189c0.255,0.553 0.504,1.104 0.748,1.653c0.054,0.121 0.107,0.242 0.161,0.363c0.09,0.205 0.179,0.409 0.268,0.613l0.032,0.073c0.197,0.454 0.391,0.906 0.58,1.357c0.043,0.1 0.085,0.201 0.127,0.301c0.348,0.832 0.684,1.658 1.006,2.479c0.046,0.115 0.091,0.23 0.135,0.345c0.047,0.119 0.093,0.237 0.138,0.355c0.179,0.464 0.354,0.925 0.524,1.385l0.023,0.061c0.332,0.897 0.648,1.785 0.948,2.665c0.217,0.638 0.426,1.272 0.626,1.901l2.065,-0.643Zm-18.617,-33.388c1.291,2.013 2.538,4.053 3.74,6.119c1.222,2.099 2.402,4.222 3.538,6.367l0.073,-0.169c1.524,-3.564 2.821,-7.04 3.864,-10.367c-3.475,-0.789 -7.173,-1.437 -11.031,-1.927l-0.184,-0.023Zm-35.901,-0.01c-3.899,0.485 -7.641,1.123 -11.151,1.905c1.069,3.428 2.378,6.977 3.909,10.588l0.104,-0.201c1.076,-2.067 2.198,-4.11 3.368,-6.127c1.17,-2.019 2.386,-4.011 3.648,-5.975l0.122,-0.19Zm42.924,-30.6c-4.448,0.001 -11.243,3.242 -18.409,9.446c-0.964,0.836 -1.907,1.697 -2.828,2.581c3.515,3.768 7.017,8.121 10.397,12.908c5.802,0.542 11.343,1.414 16.446,2.585l0.037,-0.151c0.185,-0.758 0.357,-1.518 0.516,-2.281c2.588,-12.497 0.986,-22.026 -3.133,-24.389c-0.8,-0.46 -1.799,-0.691 -2.96,-0.699l-0.066,0Zm-50.096,0.116c-1.239,0.003 -2.305,0.247 -3.157,0.738c-3.863,2.225 -5.398,11.09 -3.086,22.842l0,0l0.023,0.118c0.244,1.224 0.518,2.442 0.822,3.652l0.119,-0.027c5.058,-1.134 10.555,-1.981 16.294,-2.511c3.374,-4.736 6.905,-9.081 10.478,-12.899c-0.617,-0.586 -1.232,-1.153 -1.845,-1.695c-7.568,-6.684 -14.829,-10.197 -19.578,-10.218l-0.07,0Zm25.177,15.649c-2.462,2.642 -4.91,5.554 -7.299,8.689l0.227,-0.01c2.346,-0.106 4.693,-0.159 7.041,-0.158l0.227,0c2.348,0.004 4.696,0.061 7.042,0.171l-0.112,-0.148c-2.314,-3.058 -4.665,-5.882 -7.013,-8.422l-0.113,-0.122Z" style="fill:#53c1de;" id="svg_3"/><circle cx="61.5" cy="54.5" r="10.774999618530273" style="fill:#53c1de;" id="svg_4"/></g></g></g></svg>